<?xml version="1.0" standalone="no"?>
<!DOCTYPE svg PUBLIC "-//W3C//DTD SVG 20010904//EN"
 "http://www.w3.org/TR/2001/REC-SVG-20010904/DTD/svg10.dtd">
<svg version="1.0" xmlns="http://www.w3.org/2000/svg"
 width="512" height="512" viewBox="270 130 540 460"
 preserveAspectRatio="xMidYMid meet">
<metadata>
Created by potrace 1.16, written by Peter Selinger 2001-2019
</metadata>
<g transform="translate(0.000000,1031.000000) scale(0.100000,-0.100000)"
fill="#A54A2A" stroke="none">
<path d="M3480 9360 c-24 -24 -28 -106 -7 -134 13 -18 51 -19 873 -17 l859 1
18 21 c26 32 22 94 -8 124 l-24 25 -846 0 c-832 0 -845 0 -865 -20z"/>
<path d="M3533 9078 c3 -13 17 -86 31 -163 111 -612 220 -948 326 -1002 19
-10 130 -12 482 -11 l457 3 29 28 c90 86 186 394 277 890 24 134 47 252 51
261 6 15 -62 16 -826 16 l-832 0 5 -22z m592 -371 c55 -67 101 -127 103 -132
3 -10 -196 -250 -208 -250 -3 0 -54 55 -113 122 l-107 123 107 130 c60 71 110
130 113 129 3 0 50 -55 105 -122z m688 -9 l107 -128 -108 -126 -107 -125 -34
38 c-19 21 -69 77 -113 125 l-78 87 107 130 c60 72 111 129 114 128 3 -1 54
-59 112 -129z"/>
<path d="M3971 8624 l-43 -54 43 -48 c23 -26 44 -49 45 -51 3 -3 60 59 80 88
10 14 4 26 -35 68 l-46 52 -44 -55z"/>
<path d="M4651 8620 l-42 -50 48 -51 48 -50 43 52 42 51 -41 49 c-22 27 -44
49 -48 49 -4 0 -27 -23 -50 -50z"/>
<path d="M6685 8592 c-344 -340 -1258 -1240 -1582 -1555 -120 -118 -152 -145
-157 -130 -10 35 -155 869 -156 898 0 0 -195 1 -434 3 l-434 3 -6 -28 c-3 -15
-24 -140 -45 -278 -22 -137 -63 -376 -90 -530 -28 -153 -51 -284 -51 -290 0
-7 154 -11 506 -12 279 -1 508 -4 511 -6 2 -3 -11 -21 -30 -41 l-34 -36 -492
0 -493 0 -29 -29 c-44 -44 -36 -126 15 -149 13 -6 166 -8 399 -5 207 2 377 1
377 -4 0 -4 -12 -32 -27 -61 l-28 -53 -365 3 c-329 3 -369 5 -393 21 -14 9
-28 17 -31 17 -8 0 -35 -92 -45 -155 -19 -116 -23 -221 -11 -340 46 -464 313
-901 715 -1167 409 -272 908 -339 1375 -185 125 41 293 127 415 212 323 225
560 587 647 988 30 139 33 485 5 617 -52 244 -141 466 -260 645 -68 101 -151
205 -164 202 -7 -1 -189 -178 -406 -394 l-392 -392 28 -38 c45 -59 77 -128 98
-211 71 -277 -78 -557 -351 -661 -56 -21 -82 -25 -190 -25 -142 0 -192 14
-308 86 -114 73 -206 209 -233 346 -16 85 -6 231 20 307 21 58 45 84 926 969
l905 910 43 -42 43 -42 27 27 27 27 -40 41 -40 40 218 217 217 217 75 5 c41 2
159 5 262 5 l187 1 3 63 3 62 114 15 c98 13 116 18 129 37 13 20 13 26 -1 47
-14 21 -28 25 -119 36 -57 6 -109 13 -115 15 -9 3 -13 26 -13 70 l0 65 -182 0
-183 0 -360 -358z m-2531 -1467 c36 -132 66 -243 66 -247 0 -5 -58 -8 -130 -8
-104 0 -130 3 -130 14 0 26 74 377 106 506 l7 25 7 -25 c4 -14 38 -133 74
-265z m496 243 c0 -11 7 -48 16 -81 9 -34 33 -142 53 -239 l38 -178 -130 0
-129 0 6 33 c3 17 34 136 68 264 56 207 78 264 78 201z"/>
<path d="M5015 6037 c-20 -16 -28 -35 -32 -68 -5 -41 -2 -48 27 -77 66 -66
170 -25 170 68 0 86 -101 133 -165 77z"/>
</g>
</svg>
